<?xml version="1.0" encoding="UTF-8"?>
<!DOCTYPE svg PUBLIC "-//W3C//DTD SVG 1.1//EN" "http://www.w3.org/Graphics/SVG/1.1/DTD/svg11.dtd">
<svg xmlns="http://www.w3.org/2000/svg" version="1.1" width="500px" height="500px" style="shape-rendering:geometricPrecision; text-rendering:geometricPrecision; image-rendering:optimizeQuality; fill-rule:evenodd; clip-rule:evenodd" xmlns:xlink="http://www.w3.org/1999/xlink">
<g><path style="opacity:0.179" fill="#fdf499" d="M 286.5,87.5 C 286.5,89.8333 286.5,92.1667 286.5,94.5C 283.978,94.8719 281.978,94.0386 280.5,92C 277.854,91.5026 275.187,91.3359 272.5,91.5C 272.5,90.1667 272.5,88.8333 272.5,87.5C 277.167,87.5 281.833,87.5 286.5,87.5 Z"/></g>
<g><path style="opacity:0.402" fill="#f5e185" d="M 286.5,87.5 C 287.833,87.5 289.167,87.5 290.5,87.5C 290.5,90.5 290.5,93.5 290.5,96.5C 288.938,96.2671 287.605,95.6005 286.5,94.5C 286.5,92.1667 286.5,89.8333 286.5,87.5 Z"/></g>
<g><path style="opacity:0.403" fill="#eac96c" d="M 290.5,87.5 C 292.483,87.1568 293.817,87.8235 294.5,89.5C 294.5,92.8333 294.5,96.1667 294.5,99.5C 293.167,98.5 291.833,97.5 290.5,96.5C 290.5,93.5 290.5,90.5 290.5,87.5 Z"/></g>
<g><path style="opacity:0.579" fill="#deb053" d="M 294.5,89.5 C 296.153,89.6596 297.486,90.3263 298.5,91.5C 299.08,95.649 298.414,99.3157 296.5,102.5C 295.833,101.5 295.167,100.5 294.5,99.5C 294.5,96.1667 294.5,92.8333 294.5,89.5 Z"/></g>
<g><path style="opacity:0.528" fill="#d7a143" d="M 298.5,91.5 C 299.492,91.3284 300.158,91.6618 300.5,92.5C 300.171,105.677 300.505,118.677 301.5,131.5C 301.5,132.167 301.167,132.5 300.5,132.5C 299.883,132.389 299.383,132.056 299,131.5C 298.667,125.833 298.333,120.167 298,114.5C 297.617,113.944 297.117,113.611 296.5,113.5C 296.869,111.559 297.536,109.725 298.5,108C 297.139,106.416 296.472,104.582 296.5,102.5C 298.414,99.3157 299.08,95.649 298.5,91.5 Z"/></g>
<g><path style="opacity:0.59" fill="#ca8223" d="M 303.5,95.5 C 305.19,95.8564 306.19,96.8564 306.5,98.5C 305.346,104.987 305.179,111.654 306,118.5C 306.671,119.252 307.504,119.586 308.5,119.5C 307.308,121.113 306.308,122.78 305.5,124.5C 304.883,124.389 304.383,124.056 304,123.5C 303.5,114.173 303.334,104.839 303.5,95.5 Z"/></g>
<g><path style="opacity:0.335" fill="#c47415" d="M 306.5,98.5 C 307.458,98.9528 308.292,99.6195 309,100.5C 310.905,106.909 310.739,113.242 308.5,119.5C 307.504,119.586 306.671,119.252 306,118.5C 305.179,111.654 305.346,104.987 306.5,98.5 Z"/></g>
<g><path style="opacity:0.849" fill="#d29536" d="M 300.5,92.5 C 302.19,92.8564 303.19,93.8564 303.5,95.5C 303.334,104.839 303.5,114.173 304,123.5C 304.383,124.056 304.883,124.389 305.5,124.5C 304.167,126.833 302.833,129.167 301.5,131.5C 300.505,118.677 300.171,105.677 300.5,92.5 Z"/></g>
<g><path style="opacity:0.173" fill="#d7a143" d="M 285.5,117.5 C 285.658,120.902 285.324,124.236 284.5,127.5C 284.5,128.167 284.167,128.5 283.5,128.5C 283.5,125.5 283.5,122.5 283.5,119.5C 283.833,118.5 284.5,117.833 285.5,117.5 Z"/></g>
<g><path style="opacity:0.058" fill="#c17012" d="M 285.5,117.5 C 290.831,117.78 291.831,120.113 288.5,124.5C 287.148,125.524 285.815,126.524 284.5,127.5C 285.324,124.236 285.658,120.902 285.5,117.5 Z"/></g>
<g><path style="opacity:0.375" fill="#fdf499" d="M 280.5,120.5 C 280.336,123.187 280.503,125.854 281,128.5C 281.383,129.056 281.883,129.389 282.5,129.5C 281.186,131.737 280.02,134.071 279,136.5C 278.721,143.533 278.221,150.533 277.5,157.5C 276.127,157.657 274.793,157.49 273.5,157C 272.884,154.821 271.717,152.988 270,151.5C 269.333,144.833 269.333,138.167 270,131.5C 272.665,127.002 276.165,123.336 280.5,120.5 Z"/></g>
<g><path style="opacity:0.718" fill="#e2b85a" d="M 296.5,113.5 C 297.117,113.611 297.617,113.944 298,114.5C 298.333,120.167 298.667,125.833 299,131.5C 299.383,132.056 299.883,132.389 300.5,132.5C 299.066,135.047 297.4,137.381 295.5,139.5C 294.664,132.473 294.33,125.473 294.5,118.5C 295.167,116.833 295.833,115.167 296.5,113.5 Z"/></g>
<g><path style="opacity:0.478" fill="#e7c367" d="M 283.5,119.5 C 283.5,122.5 283.5,125.5 283.5,128.5C 282.833,128.5 282.5,128.833 282.5,129.5C 281.883,129.389 281.383,129.056 281,128.5C 280.503,125.854 280.336,123.187 280.5,120.5C 281.609,120.443 282.609,120.11 283.5,119.5 Z"/></g>
<g><path style="opacity:0.951" fill="#eac96c" d="M 294.5,118.5 C 294.33,125.473 294.664,132.473 295.5,139.5C 294.154,141.537 292.82,143.537 291.5,145.5C 291.5,139.5 291.5,133.5 291.5,127.5C 290.5,127.5 289.5,127.5 288.5,127.5C 290.504,124.458 292.504,121.458 294.5,118.5 Z"/></g>
<g><path style="opacity:0.675" fill="#f3df83" d="M 288.5,127.5 C 289.5,127.5 290.5,127.5 291.5,127.5C 291.5,133.5 291.5,139.5 291.5,145.5C 291.567,146.959 291.234,148.292 290.5,149.5C 289.883,149.389 289.383,149.056 289,148.5C 288.667,143.5 288.333,138.5 288,133.5C 287.722,132.584 287.222,131.918 286.5,131.5C 287.6,130.395 288.267,129.062 288.5,127.5 Z"/></g>
<g><path style="opacity:0.417" fill="#fbf197" d="M 283.5,138.5 C 284.117,138.611 284.617,138.944 285,139.5C 285.167,141.333 285.333,143.167 285.5,145C 285.236,152.841 284.903,160.674 284.5,168.5C 286.95,168.702 289.283,168.369 291.5,167.5C 291.634,169.292 291.301,170.958 290.5,172.5C 288.833,172.5 287.167,172.5 285.5,172.5C 281.226,167.79 279.226,162.124 279.5,155.5C 279.457,149.373 280.79,143.706 283.5,138.5 Z"/></g>
<g><path style="opacity:0.285" fill="#faee92" d="M 286.5,131.5 C 287.222,131.918 287.722,132.584 288,133.5C 288.333,138.5 288.667,143.5 289,148.5C 289.383,149.056 289.883,149.389 290.5,149.5C 290.938,149.435 291.272,149.601 291.5,150C 287.549,155.864 287.549,161.698 291.5,167.5C 289.283,168.369 286.95,168.702 284.5,168.5C 284.903,160.674 285.236,152.841 285.5,145C 285.333,143.167 285.167,141.333 285,139.5C 284.617,138.944 284.117,138.611 283.5,138.5C 284.227,136.046 285.227,133.713 286.5,131.5 Z"/></g>
<g><path style="opacity:0.424" fill="#64130b" d="M 267.5,164.5 C 266.05,162.617 264.05,161.617 261.5,161.5C 259.955,161.511 258.622,161.844 257.5,162.5C 254.5,162.5 251.5,162.5 248.5,162.5C 242.839,162.907 237.172,163.24 231.5,163.5C 241.532,161.978 251.532,160.312 261.5,158.5C 263.705,158.148 265.538,157.148 267,155.5C 268.158,155.998 268.991,156.831 269.5,158C 267.997,159.921 267.331,162.088 267.5,164.5 Z"/></g>
<g><path style="opacity:0.64" fill="#511302" d="M 248.5,162.5 C 247.848,163.725 246.681,164.392 245,164.5C 231.312,165.647 217.812,167.481 204.5,170C 214.356,170.229 224.189,170.729 234,171.5C 236.626,170.611 239.126,170.944 241.5,172.5C 241.5,172.833 241.5,173.167 241.5,173.5C 228.109,173.203 214.776,172.203 201.5,170.5C 202.09,169.201 203.09,168.368 204.5,168C 213.628,166.407 222.628,164.907 231.5,163.5C 237.172,163.24 242.839,162.907 248.5,162.5 Z"/></g>
<g><path style="opacity:0.914" fill="#491501" d="M 248.5,162.5 C 251.5,162.5 254.5,162.5 257.5,162.5C 251.198,164.316 245.865,167.649 241.5,172.5C 239.126,170.944 236.626,170.611 234,171.5C 224.189,170.729 214.356,170.229 204.5,170C 217.812,167.481 231.312,165.647 245,164.5C 246.681,164.392 247.848,163.725 248.5,162.5 Z"/></g>
<g><path style="opacity:0.823" fill="#613123" d="M 267.5,164.5 C 266.801,166.995 265.801,169.328 264.5,171.5C 257.068,173.393 249.401,174.06 241.5,173.5C 241.5,173.167 241.5,172.833 241.5,172.5C 245.865,167.649 251.198,164.316 257.5,162.5C 258.622,161.844 259.955,161.511 261.5,161.5C 264.05,161.617 266.05,162.617 267.5,164.5 Z"/></g>
<g><path style="opacity:0.534" fill="#6b110d" d="M 231.5,163.5 C 222.628,164.907 213.628,166.407 204.5,168C 203.09,168.368 202.09,169.201 201.5,170.5C 214.776,172.203 228.109,173.203 241.5,173.5C 247.979,174.491 254.646,174.824 261.5,174.5C 241.979,175.203 222.312,174.703 202.5,173C 200.881,172.764 199.881,171.931 199.5,170.5C 199.5,169.833 199.5,169.167 199.5,168.5C 202.445,166.839 205.779,165.672 209.5,165C 216.829,164.372 224.163,163.872 231.5,163.5 Z"/></g>
<g><path style="opacity:0.361" fill="#6e2620" d="M 264.5,171.5 C 264.5,171.833 264.5,172.167 264.5,172.5C 263.5,173.167 262.5,173.833 261.5,174.5C 254.646,174.824 247.979,174.491 241.5,173.5C 249.401,174.06 257.068,173.393 264.5,171.5 Z"/></g>
<g><path style="opacity:0.326" fill="#850b13" d="M 261.5,158.5 C 251.532,160.312 241.532,161.978 231.5,163.5C 224.163,163.872 216.829,164.372 209.5,165C 205.779,165.672 202.445,166.839 199.5,168.5C 197.067,169.548 197.067,170.214 199.5,170.5C 199.881,171.931 200.881,172.764 202.5,173C 222.312,174.703 241.979,175.203 261.5,174.5C 262.5,173.833 263.5,173.167 264.5,172.5C 271.5,173.833 278.5,173.833 285.5,172.5C 287.167,172.5 288.833,172.5 290.5,172.5C 289.391,173.29 288.058,173.79 286.5,174C 300.162,174.757 313.829,175.424 327.5,176C 329.91,176.758 330.91,178.425 330.5,181C 330.607,183.221 329.94,185.054 328.5,186.5C 327.833,186.833 327.167,187.167 326.5,187.5C 325.883,187.611 325.383,187.944 325,188.5C 324.192,192.027 324.359,195.36 325.5,198.5C 323.438,203.624 321.105,208.624 318.5,213.5C 317.833,213.5 317.5,213.833 317.5,214.5C 316.833,214.5 316.5,214.833 316.5,215.5C 313.916,216.048 312.916,217.715 313.5,220.5C 293.134,246.675 266.468,258.175 233.5,255C 232.663,253.989 232.33,252.822 232.5,251.5C 234.483,251.843 235.817,251.176 236.5,249.5C 245.914,250.096 254.914,249.096 263.5,246.5C 271.565,244.747 278.565,241.08 284.5,235.5C 284.842,234.662 285.508,234.328 286.5,234.5C 288.711,233.877 290.711,232.877 292.5,231.5C 293.167,231.5 293.5,231.167 293.5,230.5C 294.167,230.5 294.5,230.167 294.5,229.5C 294.5,228.833 294.833,228.5 295.5,228.5C 296.167,228.5 296.5,228.167 296.5,227.5C 297.167,227.5 297.5,227.167 297.5,226.5C 297.5,225.833 297.833,225.5 298.5,225.5C 299.206,226.557 299.539,226.224 299.5,224.5C 299.5,223.833 299.5,223.167 299.5,222.5C 299.833,222.5 300.167,222.5 300.5,222.5C 300.833,223.833 301.167,223.833 301.5,222.5C 302.167,222.5 302.5,222.167 302.5,221.5C 303.906,221.027 304.573,220.027 304.5,218.5C 305.906,218.027 306.573,217.027 306.5,215.5C 307.338,215.158 307.672,214.492 307.5,213.5C 307.5,212.833 307.833,212.5 308.5,212.5C 309.644,213.183 309.644,212.849 308.5,211.5C 308.328,210.508 308.662,209.842 309.5,209.5C 310.329,210.332 311.162,209.999 312,208.5C 312.483,207.552 312.649,206.552 312.5,205.5C 314.519,204.462 314.853,203.128 313.5,201.5C 313.5,201.167 313.5,200.833 313.5,200.5C 313.833,200.5 314.167,200.5 314.5,200.5C 316.539,199.089 317.539,197.089 317.5,194.5C 317.833,193.833 318.167,193.167 318.5,192.5C 319.475,189.933 320.142,187.267 320.5,184.5C 319.167,184.5 317.833,184.5 316.5,184.5C 316.586,183.504 316.252,182.671 315.5,182C 302.171,181.5 288.837,181.333 275.5,181.5C 266.014,180.506 256.348,180.173 246.5,180.5C 246.5,180.167 246.5,179.833 246.5,179.5C 236.29,179.381 226.29,179.381 216.5,179.5C 215.833,179.5 215.5,179.833 215.5,180.5C 208.881,179.743 202.215,179.243 195.5,179C 191.389,177.109 187.056,176.109 182.5,176C 177.592,173.127 177.259,169.794 181.5,166C 198.561,160.366 216.227,157.366 234.5,157C 242.656,154.552 250.99,153.886 259.5,155C 260.823,155.816 261.489,156.983 261.5,158.5 Z"/></g>
<g><path style="opacity:0.718" fill="#7f0109" d="M 246.5,179.5 C 238.324,178.833 229.99,178.167 221.5,177.5C 239.833,176.167 258.167,176.167 276.5,177.5C 275.975,178.192 275.308,178.692 274.5,179C 265.173,179.5 255.839,179.666 246.5,179.5 Z"/></g>
<g><path style="opacity:0.303" fill="#aa4e38" d="M 216.5,179.5 C 226.29,179.381 236.29,179.381 246.5,179.5C 246.5,179.833 246.5,180.167 246.5,180.5C 236.461,180.758 226.461,180.424 216.5,179.5 Z"/></g>
<g><path style="opacity:0.1" fill="#cd895c" d="M 215.5,180.5 C 215.5,179.833 215.833,179.5 216.5,179.5C 226.461,180.424 236.461,180.758 246.5,180.5C 246.5,180.833 246.5,181.167 246.5,181.5C 243.5,181.5 240.5,181.5 237.5,181.5C 232.167,181.5 226.833,181.5 221.5,181.5C 219.833,181.5 218.167,181.5 216.5,181.5C 216.5,180.833 216.167,180.5 215.5,180.5 Z"/></g>
<g><path style="opacity:0.132" fill="#c57a60" d="M 246.5,181.5 C 246.5,181.167 246.5,180.833 246.5,180.5C 256.348,180.173 266.014,180.506 275.5,181.5C 275.5,181.833 275.5,182.167 275.5,182.5C 274.167,182.5 272.833,182.5 271.5,182.5C 263.146,182.573 254.812,182.24 246.5,181.5 Z"/></g>
<g><path style="opacity:0.426" fill="#9b3022" d="M 275.5,182.5 C 275.5,182.167 275.5,181.833 275.5,181.5C 288.837,181.333 302.171,181.5 315.5,182C 316.252,182.671 316.586,183.504 316.5,184.5C 316.167,184.5 315.833,184.5 315.5,184.5C 309.591,183.545 303.591,183.211 297.5,183.5C 290.588,182.538 283.588,182.205 276.5,182.5C 276.167,182.5 275.833,182.5 275.5,182.5 Z"/></g>
<g><path style="opacity:0.659" fill="#8d0919" d="M 173.5,183.5 C 191.727,180.067 207.893,184.067 222,195.5C 232.992,206.654 235.492,219.487 229.5,234C 218.895,261.265 199.562,279.932 171.5,290C 165.197,290.942 158.863,291.609 152.5,292C 157.198,301.228 162.031,310.395 167,319.5C 173.706,329.881 182.539,337.714 193.5,343C 200.613,343.893 207.613,343.393 214.5,341.5C 217.44,338.196 221.107,336.196 225.5,335.5C 226.494,338.897 226.161,342.23 224.5,345.5C 221.006,347.414 217.672,349.581 214.5,352C 191.146,357.938 171.646,352.105 156,334.5C 148.018,326.205 142.352,316.538 139,305.5C 133.023,318.479 123.523,327.646 110.5,333C 98.9603,335.317 88.9603,332.484 80.5,324.5C 75.5477,299.95 85.5477,289.45 110.5,293C 114.639,294.639 117.639,297.473 119.5,301.5C 122.057,297.392 124.39,293.059 126.5,288.5C 112.249,289.884 100.749,284.55 92,272.5C 90.6426,265.215 90.6426,257.882 92,250.5C 105.278,221.559 126.778,201.059 156.5,189C 162.422,187.586 168.089,185.752 173.5,183.5 Z M 121.5,279.5 C 114.526,279.527 109.859,276.36 107.5,270C 107.762,259.427 110.596,249.594 116,240.5C 138.235,209.466 168.401,195.299 206.5,198C 208.275,199.439 210.275,200.439 212.5,201C 214.146,202.555 214.479,204.221 213.5,206C 214.561,207.849 215.227,209.849 215.5,212C 211.559,233.622 201.226,251.622 184.5,266C 174.904,273.593 164.071,278.426 152,280.5C 156.803,262.281 165.136,245.281 177,229.5C 181.548,223.107 187.715,220.107 195.5,220.5C 196.186,216.713 195.186,213.546 192.5,211C 185.298,208.553 178.631,209.553 172.5,214C 154.819,230.341 141.985,249.841 134,272.5C 133.667,272.833 133.333,273.167 133,273.5C 129.369,271.084 125.369,269.418 121,268.5C 120.127,268.735 119.293,269.069 118.5,269.5C 117.353,271.765 117.186,274.098 118,276.5C 119.518,277.163 120.685,278.163 121.5,279.5 Z M 121.5,279.5 C 123.404,279.738 124.738,280.738 125.5,282.5C 123.596,282.262 122.262,281.262 121.5,279.5 Z M 125.5,282.5 C 128.401,283.178 128.901,284.512 127,286.5C 125.812,285.437 125.312,284.103 125.5,282.5 Z M 99.5,303.5 C 102.351,304.992 105.351,306.492 108.5,308C 110.833,308.333 113.167,308.667 115.5,309C 111.88,315.209 106.713,319.376 100,321.5C 95.4331,321.425 93.5997,319.092 94.5,314.5C 94.2812,309.94 95.9479,306.273 99.5,303.5 Z"/></g>
<g><path style="opacity:0.23" fill="#e4b174" d="M 221.5,181.5 C 226.833,181.5 232.167,181.5 237.5,181.5C 240.311,182.475 243.311,183.142 246.5,183.5C 238.016,184.493 229.349,184.826 220.5,184.5C 220.557,183.391 220.89,182.391 221.5,181.5 Z"/></g>
<g><path style="opacity:0.992" fill="#eec399" d="M 271.5,182.5 C 272.833,182.5 274.167,182.5 275.5,182.5C 275.833,182.5 276.167,182.5 276.5,182.5C 282.653,183.328 288.987,183.828 295.5,184C 295.957,184.414 296.291,184.914 296.5,185.5C 294.629,188.234 293.629,191.234 293.5,194.5C 290.579,197.242 288.579,200.575 287.5,204.5C 287.672,205.492 287.338,206.158 286.5,206.5C 275.542,224.122 260.542,237.122 241.5,245.5C 242.637,239.688 244.303,234.022 246.5,228.5C 246.397,225.781 246.731,223.115 247.5,220.5C 249.246,217.563 250.579,214.563 251.5,211.5C 255.613,202.587 258.613,193.254 260.5,183.5C 264.371,183.815 268.038,183.482 271.5,182.5 Z"/></g>
<g><path style="opacity:0.734" fill="#d69865" d="M 216.5,181.5 C 218.167,181.5 219.833,181.5 221.5,181.5C 220.89,182.391 220.557,183.391 220.5,184.5C 233.045,185.142 245.712,186.142 258.5,187.5C 255.539,195.348 253.206,203.348 251.5,211.5C 250.579,214.563 249.246,217.563 247.5,220.5C 246.731,223.115 246.397,225.781 246.5,228.5C 244.827,229.343 243.66,230.676 243,232.5C 241.829,237.031 240.662,241.531 239.5,246C 240.448,246.483 241.448,246.649 242.5,246.5C 241.5,247.167 240.5,247.833 239.5,248.5C 238.209,248.263 237.209,248.596 236.5,249.5C 235.167,249.5 233.833,249.5 232.5,249.5C 234.175,245.625 235.675,241.625 237,237.5C 241.221,223.691 240.221,210.358 234,197.5C 228.853,191.76 222.519,188.094 215,186.5C 214.401,184.465 214.901,182.799 216.5,181.5 Z"/></g>
<g><path style="opacity:0.492" fill="#dea56f" d="M 246.5,183.5 C 251.167,183.5 255.833,183.5 260.5,183.5C 258.613,193.254 255.613,202.587 251.5,211.5C 253.206,203.348 255.539,195.348 258.5,187.5C 245.712,186.142 233.045,185.142 220.5,184.5C 229.349,184.826 238.016,184.493 246.5,183.5 Z"/></g>
<g><path style="opacity:0.249" fill="#fee0af" d="M 276.5,184.5 C 282.537,184.171 288.537,184.504 294.5,185.5C 291.5,185.833 288.5,186.167 285.5,186.5C 282.087,186.483 279.087,185.816 276.5,184.5 Z"/></g>
<g><path style="opacity:0.469" fill="#d4873d" d="M 297.5,183.5 C 303.591,183.211 309.591,183.545 315.5,184.5C 317.226,186.82 317.893,189.487 317.5,192.5C 315.025,193.687 314.025,195.687 314.5,198.5C 314.5,199.167 314.5,199.833 314.5,200.5C 314.167,200.5 313.833,200.5 313.5,200.5C 312.5,200.5 311.5,200.5 310.5,200.5C 311.833,196.5 313.167,192.5 314.5,188.5C 308.833,188.5 303.167,188.5 297.5,188.5C 297.5,186.833 297.5,185.167 297.5,183.5 Z"/></g>
<g><path style="opacity:1" fill="#cd7c3a" d="M 297.5,188.5 C 303.167,188.5 308.833,188.5 314.5,188.5C 313.167,192.5 311.833,196.5 310.5,200.5C 311.5,200.5 312.5,200.5 313.5,200.5C 313.5,200.833 313.5,201.167 313.5,201.5C 312.766,202.708 312.433,204.041 312.5,205.5C 311.833,205.5 311.5,205.833 311.5,206.5C 308.231,207.56 306.565,209.893 306.5,213.5C 306.5,214.167 306.5,214.833 306.5,215.5C 305.833,215.833 305.167,216.167 304.5,216.5C 302.086,217.911 300.419,219.911 299.5,222.5C 295.094,226.578 290.761,230.578 286.5,234.5C 285.508,234.328 284.842,234.662 284.5,235.5C 279.742,237.742 275.075,240.242 270.5,243C 268.292,243.191 266.292,243.691 264.5,244.5C 260.072,244.71 256.072,245.71 252.5,247.5C 248.366,248.485 244.032,248.818 239.5,248.5C 240.5,247.833 241.5,247.167 242.5,246.5C 245.697,245.548 248.697,244.215 251.5,242.5C 256.368,240.618 260.701,237.952 264.5,234.5C 271.508,227.492 278.174,220.158 284.5,212.5C 287.421,209.758 289.421,206.425 290.5,202.5C 292.461,200.202 293.461,197.535 293.5,194.5C 294.833,192.5 296.167,190.5 297.5,188.5 Z"/></g>
<g><path style="opacity:1" fill="#d38f62" d="M 276.5,182.5 C 283.588,182.205 290.588,182.538 297.5,183.5C 297.5,185.167 297.5,186.833 297.5,188.5C 296.167,190.5 294.833,192.5 293.5,194.5C 293.629,191.234 294.629,188.234 296.5,185.5C 296.291,184.914 295.957,184.414 295.5,184C 288.987,183.828 282.653,183.328 276.5,182.5 Z"/></g>
<g><path style="opacity:0.12" fill="#c37d4a" d="M 328.5,186.5 C 328.5,187.167 328.5,187.833 328.5,188.5C 327.539,190.265 327.205,192.265 327.5,194.5C 327.167,194.5 326.833,194.5 326.5,194.5C 326.5,192.167 326.5,189.833 326.5,187.5C 327.167,187.167 327.833,186.833 328.5,186.5 Z"/></g>
<g><path style="opacity:0.169" fill="#972b23" d="M 326.5,187.5 C 326.5,189.833 326.5,192.167 326.5,194.5C 325.566,195.568 325.232,196.901 325.5,198.5C 324.359,195.36 324.192,192.027 325,188.5C 325.383,187.944 325.883,187.611 326.5,187.5 Z"/></g>
<g><path style="opacity:0.018" fill="#b85b2f" d="M 317.5,192.5 C 317.833,192.5 318.167,192.5 318.5,192.5C 318.167,193.167 317.833,193.833 317.5,194.5C 316.143,195.59 315.143,196.924 314.5,198.5C 314.025,195.687 315.025,193.687 317.5,192.5 Z"/></g>
<g><path style="opacity:0.508" fill="#8d0a19" d="M 386.5,197.5 C 400.701,198.01 403.367,204.01 394.5,215.5C 391.066,219.269 387.066,222.269 382.5,224.5C 380.929,223.691 379.262,223.357 377.5,223.5C 376.736,218.86 377.903,214.86 381,211.5C 382.238,206.499 384.071,201.833 386.5,197.5 Z"/></g>
<g><path style="opacity:1" fill="#dfa26d" d="M 293.5,194.5 C 293.461,197.535 292.461,200.202 290.5,202.5C 289.5,203.167 288.5,203.833 287.5,204.5C 288.579,200.575 290.579,197.242 293.5,194.5 Z"/></g>
<g><path style="opacity:1" fill="#d09234" d="M 334.5,190.5 C 335.5,190.833 336.167,191.5 336.5,192.5C 336.5,199.5 336.5,206.5 336.5,213.5C 334.535,206.24 333.868,198.573 334.5,190.5 Z"/></g>
<g><path style="opacity:0.105" fill="#e6bf5f" d="M 328.5,188.5 C 330.415,188.216 332.081,188.549 333.5,189.5C 332.883,189.611 332.383,189.944 332,190.5C 330.187,198.822 330.187,207.156 332,215.5C 332.5,216 333,216.5 333.5,217C 331.893,218.049 331.227,219.549 331.5,221.5C 331.167,221.5 330.833,221.5 330.5,221.5C 329.932,216.363 329.266,211.363 328.5,206.5C 328.763,202.4 328.43,198.4 327.5,194.5C 327.205,192.265 327.539,190.265 328.5,188.5 Z"/></g>
<g><path style="opacity:0.306" fill="#c77b1b" d="M 336.5,192.5 C 338.453,193.626 339.953,195.292 341,197.5C 342.287,203.934 341.454,209.934 338.5,215.5C 337.833,215.833 337.167,216.167 336.5,216.5C 336.5,215.5 336.5,214.5 336.5,213.5C 336.5,206.5 336.5,199.5 336.5,192.5 Z"/></g>
<g><path style="opacity:0.966" fill="#daa648" d="M 333.5,189.5 C 334.167,189.5 334.5,189.833 334.5,190.5C 333.868,198.573 334.535,206.24 336.5,213.5C 336.5,214.5 336.5,215.5 336.5,216.5C 335.5,216.833 334.833,217.5 334.5,218.5C 333.89,219.391 333.557,220.391 333.5,221.5C 332.833,221.5 332.167,221.5 331.5,221.5C 331.227,219.549 331.893,218.049 333.5,217C 333,216.5 332.5,216 332,215.5C 330.187,207.156 330.187,198.822 332,190.5C 332.383,189.944 332.883,189.611 333.5,189.5 Z"/></g>
<g><path style="opacity:1" fill="#d58f53" d="M 290.5,202.5 C 289.421,206.425 287.421,209.758 284.5,212.5C 285.167,210.5 285.833,208.5 286.5,206.5C 287.338,206.158 287.672,205.492 287.5,204.5C 288.5,203.833 289.5,203.167 290.5,202.5 Z"/></g>
<g><path style="opacity:0.592" fill="#8d0919" d="M 333.5,221.5 C 334.833,220.833 335.833,219.833 336.5,218.5C 337.906,218.027 338.573,217.027 338.5,215.5C 342.043,212.494 346.043,209.994 350.5,208C 362.691,208.277 370.024,214.443 372.5,226.5C 368.731,244.017 358.731,256.684 342.5,264.5C 344.395,266.867 344.895,269.534 344,272.5C 340.983,276.812 338.983,281.479 338,286.5C 340.667,283.833 343.333,281.167 346,278.5C 347.308,274.383 348.808,270.383 350.5,266.5C 355.21,262.429 359.71,262.762 364,267.5C 364.02,273.377 362.52,278.877 359.5,284C 362.989,282.224 366.323,279.891 369.5,277C 370.793,276.51 372.127,276.343 373.5,276.5C 373.754,269.401 377.087,264.235 383.5,261C 393.207,257.675 401.874,259.508 409.5,266.5C 411.288,271.189 410.621,275.356 407.5,279C 411.33,277.954 415.33,277.12 419.5,276.5C 419.817,279.572 419.484,282.572 418.5,285.5C 412.213,287.655 405.88,289.655 399.5,291.5C 401.436,294.208 401.936,297.208 401,300.5C 393.549,307.534 385.383,308.367 376.5,303C 373.869,300.023 370.869,297.523 367.5,295.5C 366.833,293.833 366.167,292.167 365.5,290.5C 361.523,293.309 357.69,296.309 354,299.5C 349.025,313.093 342.691,326.093 335,338.5C 331.512,343.319 327.679,347.819 323.5,352C 315.167,352.667 306.833,352.667 298.5,352C 293.965,346.316 292.465,339.816 294,332.5C 300.523,316.978 311.69,306.145 327.5,300C 325.021,299.121 323.021,297.621 321.5,295.5C 318.531,298.052 315.198,300.052 311.5,301.5C 308.796,300.428 306.13,299.428 303.5,298.5C 303.785,296.712 303.452,295.045 302.5,293.5C 298.191,300.937 292.525,302.271 285.5,297.5C 284.902,296.205 284.402,294.872 284,293.5C 278.733,302.578 272.4,303.578 265,296.5C 263.338,292.554 263.004,288.554 264,284.5C 260.522,288.92 258.189,293.92 257,299.5C 249.849,303.34 245.349,301.34 243.5,293.5C 238.578,300.321 232.578,301.654 225.5,297.5C 225.023,296.069 224.357,294.736 223.5,293.5C 218.134,302.006 211.968,302.672 205,295.5C 203.284,287.352 204.617,279.685 209,272.5C 211.806,269.694 214.64,266.86 217.5,264C 222.957,262.497 227.624,263.664 231.5,267.5C 232.692,265.317 234.525,263.984 237,263.5C 239.705,264.939 242.538,265.939 245.5,266.5C 245.663,268.857 245.497,271.19 245,273.5C 242.034,277.565 239.534,281.898 237.5,286.5C 237.833,286.833 238.167,287.167 238.5,287.5C 244.296,283.319 247.796,277.652 249,270.5C 250.87,268.595 252.37,266.428 253.5,264C 257.167,263.333 260.833,263.333 264.5,264C 265.047,264.925 265.713,265.758 266.5,266.5C 269.282,264.178 272.449,262.511 276,261.5C 279.189,262.538 282.189,263.871 285,265.5C 286.468,271.897 285.135,277.564 281,282.5C 280.333,283.5 280.333,284.5 281,285.5C 282.667,284.5 284,283.167 285,281.5C 286.877,274.434 290.71,268.601 296.5,264C 301.351,262.742 305.685,263.576 309.5,266.5C 314.258,256.922 318.758,247.256 323,237.5C 326.272,231.939 329.772,226.605 333.5,221.5 Z M 352.5,218.5 C 357.116,217.443 360.449,218.943 362.5,223C 361.939,227.629 360.772,232.129 359,236.5C 352.129,246.716 342.962,253.882 331.5,258C 330.056,258.781 328.723,258.614 327.5,257.5C 331.79,248.255 336.624,239.255 342,230.5C 345.336,226.332 348.836,222.332 352.5,218.5 Z M 316.5,287.5 C 319.023,281.655 321.023,275.655 322.5,269.5C 324.144,269.714 325.644,269.38 327,268.5C 327.167,269 327.333,269.5 327.5,270C 325.222,273.495 323.722,277.328 323,281.5C 321.034,283.82 318.867,285.82 316.5,287.5 Z M 395.5,271.5 C 394.969,273.544 393.802,275.211 392,276.5C 391.333,275.833 391.333,275.167 392,274.5C 392.759,272.937 393.926,271.937 395.5,271.5 Z M 298.5,284.5 C 300.055,281.06 301.888,277.727 304,274.5C 304.629,279.07 302.796,282.404 298.5,284.5 Z M 219.5,284.5 C 220.362,281.115 222.028,278.115 224.5,275.5C 225.568,277.187 225.401,278.854 224,280.5C 222.693,282.192 221.193,283.525 219.5,284.5 Z M 374.5,281.5 C 380.055,286.9 378.722,288.567 370.5,286.5C 372.931,285.64 374.264,283.973 374.5,281.5 Z M 219.5,284.5 C 219.539,285.756 219.039,286.756 218,287.5C 217.415,286.002 217.915,285.002 219.5,284.5 Z M 298.5,284.5 C 298.483,286.028 297.816,286.528 296.5,286C 297.044,285.283 297.711,284.783 298.5,284.5 Z M 333.5,306.5 C 334.376,306.369 335.043,306.702 335.5,307.5C 330.151,318.676 324.318,329.676 318,340.5C 315.284,344.972 311.45,346.306 306.5,344.5C 304.775,342.043 304.275,339.377 305,336.5C 307.805,328.017 312.638,320.851 319.5,315C 324.398,312.21 329.065,309.377 333.5,306.5 Z"/></g>
<g><path style="opacity:0.141" fill="#af4f29" d="M 311.5,206.5 C 310.833,207.5 310.167,208.5 309.5,209.5C 308.662,209.842 308.328,210.508 308.5,211.5C 308.5,211.833 308.5,212.167 308.5,212.5C 307.833,212.5 307.5,212.833 307.5,213.5C 307.167,213.5 306.833,213.5 306.5,213.5C 306.565,209.893 308.231,207.56 311.5,206.5 Z"/></g>
<g><path style="opacity:0.478" fill="#f2dc7c" d="M 328.5,206.5 C 329.266,211.363 329.932,216.363 330.5,221.5C 329.232,223.047 327.565,224.047 325.5,224.5C 325.5,220.5 325.5,216.5 325.5,212.5C 326.904,210.745 327.904,208.745 328.5,206.5 Z"/></g>
<g><path style="opacity:0.606" fill="#fcf399" d="M 325.5,212.5 C 325.5,216.5 325.5,220.5 325.5,224.5C 322.09,224.543 318.757,224.043 315.5,223C 314.748,222.329 314.414,221.496 314.5,220.5C 314.392,218.486 315.058,216.82 316.5,215.5C 316.5,214.833 316.833,214.5 317.5,214.5C 318.167,214.5 318.5,214.167 318.5,213.5C 320.903,213.552 323.236,213.219 325.5,212.5 Z"/></g>
<g><path style="opacity:0.169" fill="#c2845a" d="M 316.5,215.5 C 315.058,216.82 314.392,218.486 314.5,220.5C 314.167,220.5 313.833,220.5 313.5,220.5C 312.916,217.715 313.916,216.048 316.5,215.5 Z"/></g>
<g><path style="opacity:0.016" fill="#af5026" d="M 336.5,216.5 C 336.5,217.167 336.5,217.833 336.5,218.5C 335.833,218.5 335.167,218.5 334.5,218.5C 334.833,217.5 335.5,216.833 336.5,216.5 Z"/></g>
<g><path style="opacity:0.086" fill="#a03820" d="M 304.5,216.5 C 304.5,217.167 304.5,217.833 304.5,218.5C 303.094,218.973 302.427,219.973 302.5,221.5C 301.833,221.5 301.5,221.833 301.5,222.5C 301.167,222.5 300.833,222.5 300.5,222.5C 300.167,222.5 299.833,222.5 299.5,222.5C 300.419,219.911 302.086,217.911 304.5,216.5 Z"/></g>
<g><path style="opacity:0.051" fill="#a84226" d="M 299.5,222.5 C 299.5,223.167 299.5,223.833 299.5,224.5C 298.833,224.5 298.5,224.833 298.5,225.5C 297.833,225.5 297.5,225.833 297.5,226.5C 296.833,226.5 296.5,226.833 296.5,227.5C 295.833,227.5 295.5,227.833 295.5,228.5C 294.833,228.5 294.5,228.833 294.5,229.5C 293.833,229.5 293.5,229.833 293.5,230.5C 292.833,230.5 292.5,230.833 292.5,231.5C 290.711,232.877 288.711,233.877 286.5,234.5C 290.761,230.578 295.094,226.578 299.5,222.5 Z"/></g>
<g><path style="opacity:1" fill="#d69055" d="M 264.5,234.5 C 260.701,237.952 256.368,240.618 251.5,242.5C 255.323,239.084 259.657,236.418 264.5,234.5 Z"/></g>
<g><path style="opacity:1" fill="#e1a978" d="M 286.5,206.5 C 285.833,208.5 285.167,210.5 284.5,212.5C 278.174,220.158 271.508,227.492 264.5,234.5C 259.657,236.418 255.323,239.084 251.5,242.5C 248.697,244.215 245.697,245.548 242.5,246.5C 241.448,246.649 240.448,246.483 239.5,246C 240.662,241.531 241.829,237.031 243,232.5C 243.66,230.676 244.827,229.343 246.5,228.5C 244.303,234.022 242.637,239.688 241.5,245.5C 260.542,237.122 275.542,224.122 286.5,206.5 Z"/></g>
<g><path style="opacity:0.208" fill="#af4c29" d="M 284.5,235.5 C 278.565,241.08 271.565,244.747 263.5,246.5C 263.833,245.833 264.167,245.167 264.5,244.5C 266.292,243.691 268.292,243.191 270.5,243C 275.075,240.242 279.742,237.742 284.5,235.5 Z"/></g>
<g><path style="opacity:0.467" fill="#bf6632" d="M 264.5,244.5 C 264.167,245.167 263.833,245.833 263.5,246.5C 259.731,246.244 256.064,246.577 252.5,247.5C 256.072,245.71 260.072,244.71 264.5,244.5 Z"/></g>
<g><path style="opacity:0.167" fill="#ae4b2a" d="M 263.5,246.5 C 254.914,249.096 245.914,250.096 236.5,249.5C 237.209,248.596 238.209,248.263 239.5,248.5C 244.032,248.818 248.366,248.485 252.5,247.5C 256.064,246.577 259.731,246.244 263.5,246.5 Z"/></g>
<g><path style="opacity:0.016" fill="#ac4e3a" d="M 232.5,249.5 C 233.833,249.5 235.167,249.5 236.5,249.5C 235.817,251.176 234.483,251.843 232.5,251.5C 232.5,250.833 232.5,250.167 232.5,249.5 Z"/></g>
</svg>
